<svg xmlns="http://www.w3.org/2000/svg" width="111" height="25" fill="none"><path fill="#000" fill-rule="evenodd" d="M9.073 11.748a4.592 4.592 0 1 1 5.102 7.636 4.592 4.592 0 0 1-5.102-7.636zm.85 6.363a3.062 3.062 0 1 0 3.402-5.091 3.062 3.062 0 0 0-3.402 5.091zm6.79-13.405 2.85 8.053a8.418 8.418 0 1 1-15.813-.175l2.823-7.987a5.357 5.357 0 0 1 10.14.109zm-8.29 16.957a6.89 6.89 0 0 0 3.2.79 6.893 6.893 0 0 0 6.496-9.183l-2.852-8.062-.006-.017a3.826 3.826 0 0 0-7.245-.084L5.19 13.103a6.892 6.892 0 0 0 3.233 8.56zm77.343-16.3h-2.142v5.896h-.047c-.711-.844-1.703-1.265-2.957-1.265-.636 0-1.235.122-1.787.365a4.243 4.243 0 0 0-1.431 1.003c-.403.431-.72.947-.945 1.547a5.379 5.379 0 0 0-.346 1.95c0 .571.065 1.106.215 1.612s.355.946.627 1.33c.271.385.59.713.963.994.375.281.786.497 1.254.638.468.15.954.215 1.469.215 1.31 0 2.33-.468 3.04-1.406h.038v1.256h2.05V5.363zm-2.844 11.548c-.524.525-1.179.788-1.946.788-.795 0-1.441-.263-1.937-.788-.505-.525-.748-1.209-.748-2.043 0-.431.065-.834.206-1.21.14-.374.336-.683.58-.927.243-.244.523-.44.85-.581a2.834 2.834 0 0 1 1.058-.207c.796 0 1.45.282 1.956.835.505.562.767 1.256.767 2.09 0 .843-.262 1.518-.786 2.043zm-48.198-6.777h-2.142v1.125h-.038c-.71-.844-1.674-1.265-2.89-1.265-.637 0-1.236.122-1.788.365a4.243 4.243 0 0 0-1.431 1.003c-.403.431-.72.947-.945 1.547a5.379 5.379 0 0 0-.346 1.95c0 .571.065 1.106.215 1.612s.355.946.627 1.33c.27.385.589.713.963.994s.786.497 1.254.638c.468.15.954.215 1.469.215 1.272 0 2.264-.468 2.975-1.406h.028v1.256h2.05v-9.364zm-2.835 6.777a2.534 2.534 0 0 1-1.88.788c-.796 0-1.441-.263-1.937-.788-.505-.525-.748-1.209-.748-2.043 0-.431.065-.834.205-1.21a2.576 2.576 0 0 1 1.432-1.508 2.833 2.833 0 0 1 1.057-.207c.758 0 1.385.282 1.89.844.505.562.758 1.256.758 2.08 0 .835-.262 1.52-.777 2.044zm13.23-6.777h-2.31l-2.395 6.674h-.038l-2.442-6.674h-2.292l3.724 9.364h2.049l3.705-9.364zm4.792 9.514c-.73 0-1.394-.122-2.012-.365-.617-.244-1.141-.572-1.562-1.003a4.509 4.509 0 0 1-.983-1.538A4.965 4.965 0 0 1 45 14.83c0-.918.196-1.743.599-2.474a4.38 4.38 0 0 1 1.73-1.725c.75-.422 1.61-.637 2.583-.637.945 0 1.787.206 2.535.609.74.403 1.32.975 1.74 1.706.412.74.628 1.584.628 2.521 0 .938-.216 1.781-.627 2.512a4.381 4.381 0 0 1-1.75 1.706c-.748.403-1.59.6-2.526.6zm0-1.95c.767 0 1.413-.262 1.937-.806.524-.543.786-1.227.786-2.062 0-.843-.262-1.537-.777-2.08-.524-.535-1.17-.807-1.946-.807-.814 0-1.469.282-1.974.825-.505.553-.758 1.237-.758 2.062 0 .816.252 1.5.767 2.044.515.553 1.17.825 1.965.825zm8.15 1.35c.72.403 1.534.6 2.451.6.861 0 1.638-.15 2.34-.459.701-.3 1.272-.703 1.702-1.19l-1.478-1.313a2.709 2.709 0 0 1-.337.319 3.193 3.193 0 0 1-.412.281 2.75 2.75 0 0 1-.477.216 3.167 3.167 0 0 1-1.141.197c-.543 0-1.03-.113-1.45-.357a2.518 2.518 0 0 1-.983-1.021c-.234-.431-.346-.938-.346-1.51 0-.562.112-1.059.346-1.49.225-.43.552-.768.973-1.012.412-.244.898-.366 1.45-.366.487 0 .936.094 1.338.282.393.187.74.45 1.02.778l1.46-1.266a4.471 4.471 0 0 0-1.74-1.293 5.586 5.586 0 0 0-2.19-.45c-.936 0-1.778.206-2.507.609a4.43 4.43 0 0 0-1.712 1.715c-.412.731-.618 1.575-.618 2.512 0 .947.197 1.79.608 2.522a4.242 4.242 0 0 0 1.703 1.696zm14.53-8.914h2.144v9.364h-2.05v-1.256h-.028c-.71.938-1.702 1.406-2.975 1.406a4.762 4.762 0 0 1-1.469-.215 3.962 3.962 0 0 1-1.253-.638 4.41 4.41 0 0 1-.964-.993 4.482 4.482 0 0 1-.627-1.331 5.641 5.641 0 0 1-.215-1.613c0-.693.112-1.34.346-1.95.225-.6.543-1.115.945-1.546.393-.422.87-.759 1.431-1.003a4.385 4.385 0 0 1 1.787-.365c1.217 0 2.18.421 2.892 1.265h.037v-1.125zM70.02 17.7a2.53 2.53 0 0 0 1.88-.788c.515-.525.777-1.209.777-2.043 0-.825-.252-1.519-.758-2.081a2.432 2.432 0 0 0-1.89-.844c-.374 0-.73.075-1.057.207a2.571 2.571 0 0 0-1.432 1.51c-.14.374-.205.777-.205 1.208 0 .834.243 1.518.748 2.043.496.525 1.142.788 1.937.788zm22.129 1.95c-.73 0-1.394-.123-2.012-.366-.617-.244-1.141-.572-1.562-1.003a4.51 4.51 0 0 1-.983-1.538 4.967 4.967 0 0 1-.355-1.912c0-.918.196-1.743.599-2.474a4.38 4.38 0 0 1 1.73-1.725c.75-.422 1.61-.637 2.583-.637.945 0 1.787.206 2.535.609.74.403 1.32.975 1.74 1.706.412.74.628 1.584.628 2.521 0 .938-.216 1.781-.627 2.512a4.381 4.381 0 0 1-1.75 1.706c-.748.403-1.59.6-2.526.6zm0-1.95c.767 0 1.413-.263 1.937-.807.524-.543.786-1.227.786-2.062 0-.843-.262-1.537-.777-2.08-.524-.535-1.17-.807-1.946-.807-.814 0-1.469.282-1.974.825-.506.553-.758 1.237-.758 2.062 0 .816.252 1.5.767 2.044.515.553 1.17.825 1.965.825zm8.73 1.584a5.411 5.411 0 0 0 2.012.365c.935 0 1.777-.197 2.526-.6a4.383 4.383 0 0 0 1.749-1.706c.412-.73.627-1.574.627-2.512 0-.937-.215-1.78-.627-2.521a4.418 4.418 0 0 0-1.74-1.706c-.748-.403-1.59-.61-2.535-.61-.973 0-1.834.216-2.583.638a4.382 4.382 0 0 0-1.73 1.725c-.403.73-.6 1.556-.6 2.474 0 .685.113 1.322.356 1.912.234.6.561 1.107.983 1.538.42.43.945.759 1.562 1.003zm3.948-2.39c-.524.543-1.169.806-1.936.806-.796 0-1.451-.272-1.965-.825-.515-.544-.767-1.228-.767-2.044 0-.825.252-1.509.757-2.062.506-.543 1.161-.825 1.975-.825.776 0 1.422.272 1.946.806.514.544.776 1.238.776 2.081 0 .835-.262 1.519-.786 2.062z" clip-rule="evenodd"/></svg>