<svg xmlns="http://www.w3.org/2000/svg" width="111" height="25" fill="none"><path fill="#000" d="M4.954 7.84v.26a.331.331 0 0 1-.331.332h-.647a.331.331 0 0 0-.332.33v1.263c0 .183.149.331.332.331h.647c.183 0 .331.149.331.332v7.87a.33.33 0 0 0 .331.331h1.86a.331.331 0 0 0 .332-.33v-7.874a.33.33 0 0 1 .331-.331H8.82a.331.331 0 0 0 .331-.331V8.76a.331.331 0 0 0-.33-.33H7.807a.331.331 0 0 1-.331-.332v-.183c0-1.23.732-1.428 1.343-1.46a.343.343 0 0 0 .331-.337V4.325A.32.32 0 0 0 8.821 4c-1.907.082-3.867.905-3.867 3.84Zm9.969 2.78V8.444a.315.315 0 0 0-.336-.32c-.86.07-1.485.366-1.938.787-.201.187-.653.055-.653-.22a.26.26 0 0 0-.26-.26H9.942a.331.331 0 0 0-.331.332v9.793c0 .182.148.33.331.33h1.86a.331.331 0 0 0 .332-.33v-5.308c0-1.81.904-2.629 2.675-2.629h.115Z"/><path fill="#000" d="M23.244 8.743c0 .323-.531.499-.78.294-.627-.516-1.551-.929-2.782-.929-2.964 0-5.37 2.248-5.37 5.544 0 2.952 1.983 5.56 5.37 5.56 1.05 0 2.06-.305 2.8-.916.246-.203.762-.036.762.283 0 .17.138.308.308.308h1.884a.331.331 0 0 0 .33-.331V8.763a.331.331 0 0 0-.33-.331h-1.88a.312.312 0 0 0-.312.311Zm-.385 6.466-.002.005c-.482.95-1.406 1.673-2.81 1.673-2.272 0-3.215-1.885-3.215-3.18v-.02c0-1.62 1.155-3.258 3.197-3.258 1.52 0 2.503.857 2.946 1.847.213.456.31.972.289 1.466-.038.512-.154 1.007-.403 1.463a.02.02 0 0 0-.002.004Zm16.602-7.101c-1.117 0-2.041.419-2.695 1.028-.171.16-.314.323-.438.487a.399.399 0 0 1-.638-.016 3.526 3.526 0 0 0-.33-.434c-.77-.82-1.733-1.067-2.599-1.067-1.076 0-1.873.402-2.393.83-.2.166-.687 0-.687-.26a.245.245 0 0 0-.245-.244h-1.793a.331.331 0 0 0-.33.33v9.794c0 .182.147.33.33.33h1.86a.331.331 0 0 0 .332-.33V13.23c0-.61.096-1.258.405-1.81.31-.534.887-.972 1.81-.972.904.02 1.423.418 1.732.972.268.534.327 1.123.327 1.735v5.402a.33.33 0 0 0 .33.331H36.3a.331.331 0 0 0 .332-.33v-5.404c0-.628.038-1.18.364-1.751.327-.572.943-.953 1.83-.953.886 0 1.385.344 1.656.857.365.552.423 1.276.423 1.943v5.307c0 .183.149.331.331.331h1.861a.331.331 0 0 0 .331-.33v-5.404c0-2.152-.192-3.01-1.155-4-.808-.819-1.925-1.047-2.812-1.047Zm10.316-.001-.004.001c-3.195.002-5.542 2.61-5.542 5.581 0 2.973 2.33 5.524 5.584 5.524 1.096 0 2.138-.306 3.022-.915.767-.512 1.431-1.235 1.921-2.174.11-.211-.049-.455-.287-.455H52.57a.353.353 0 0 0-.294.166c-.493.762-1.292 1.242-2.441 1.242-1.34.02-2.73-.784-3.014-2.24-.037-.187.117-.35.308-.35h7.86c.168 0 .31-.127.323-.294.13-1.711-.366-3.243-1.589-4.488-.982-1.01-2.366-1.598-3.943-1.6-.002 0-.003.001-.003.002Zm-2.6 4.477c-.196 0-.35-.169-.297-.357.27-.954 1.26-2.004 2.917-2.004 1.635-.017 2.652 1.068 2.932 2.004.056.187-.097.357-.293.357h-5.26ZM58.61 9.798c0 .001 0 .002-.001.001l-.002-.001V8.763a.331.331 0 0 0-.33-.331h-1.725a.331.331 0 0 0-.33.33v9.794c0 .182.147.33.33.33h1.86a.331.331 0 0 0 .332-.33v-5.308c0-1.81.904-2.629 2.675-2.629a.117.117 0 0 0 .117-.116V8.44a.315.315 0 0 0-.336-.32c-1.385.113-2.162.813-2.59 1.677Zm9.596-1.69c-1.293 0-2.302.435-3.044 1.084-.242.212-.69.053-.69-.269V8.44a.331.331 0 0 0-.331-.332h-1.707a.331.331 0 0 0-.33.332v13.774c0 .183.148.332.33.332h1.861a.331.331 0 0 0 .331-.332V18.64c0-.332.512-.514.774-.311.612.472 1.533.885 2.826.885 3.1 0 5.236-2.496 5.236-5.466 0-2.534-1.56-5.639-5.256-5.639Zm2.733 5.561c0 1.714-1.29 3.218-3.215 3.218-.904 0-1.712-.36-2.29-.932a3.16 3.16 0 0 1-.924-2.266c0-.894.347-1.734.904-2.305a3.148 3.148 0 0 1 2.29-.953c2.138 0 3.235 1.715 3.235 3.218v.02Zm29.225-8.876a.331.331 0 0 0-.331.331v3.515c0 .332-.522.521-.787.322-.605-.452-1.512-.855-2.755-.855-2.867 0-5.314 2.152-5.314 5.543 0 3.048 2.097 5.561 5.352 5.561 1.368 0 2.27-.421 2.866-.93.25-.213.754-.048.754.28 0 .18.145.324.324.324h1.752a.331.331 0 0 0 .331-.33V5.123a.331.331 0 0 0-.331-.331h-1.861Zm-1.082 11.124v.002c-.598.59-1.423.95-2.347.95-1.946 0-3.235-1.448-3.235-3.217v-.02c0-1.64 1.193-3.2 3.252-3.2.905 0 1.713.343 2.29.914.578.551.943 1.333.943 2.248a3.055 3.055 0 0 1-.903 2.323ZM85.14 12.434h-5.824c-.686 0-1.243.551-1.243 1.23 0 .68.557 1.23 1.243 1.23h5.824c.687 0 1.244-.55 1.244-1.23 0-.679-.557-1.23-1.244-1.23Z"/><path fill="#000" d="m85.516 8.152-.002-.001a13.093 13.093 0 0 0-.875-.015h-4.821c-.514 0-.697 0-.88.015-2.522.193-4.496 2.145-4.69 4.639-.016.185-.016.368-.016.872 0 .503 0 .689.015.87.195 2.495 2.169 4.448 4.69 4.64.184.016.37.016.878.016h4.821c.51 0 .694 0 .88-.015 2.522-.193 4.496-2.146 4.69-4.64.016-.182.016-.365.016-.869 0-.503 0-.686-.015-.87-.195-2.494-2.165-4.446-4.689-4.64l-.002-.002Zm2.213 6.191a2.581 2.581 0 0 1-2.404 2.376c-.088.008-.268.008-.686.008h-4.821c-.418 0-.598 0-.69-.008a2.586 2.586 0 0 1-2.403-2.38c-.008-.088-.008-.266-.008-.68 0-.413 0-.591.008-.681a2.581 2.581 0 0 1 2.401-2.376c.094-.008.281-.008.69-.008h4.82c.408 0 .595 0 .69.008a2.586 2.586 0 0 1 2.403 2.378c.008.09.008.266.008.682 0 .416 0 .591-.008.681Z"/></svg>