<svg xmlns="http://www.w3.org/2000/svg" width="111" height="25" fill="none"><path fill="#000" fill-rule="evenodd" d="m15.58 10.066 5.519 9.56 4.114-7.128-1.372-2.373-2.742 4.75-1.372-2.375 2.742-4.75-1.372-2.375-2.742 4.75-1.405-2.434 3.411-5.908h1.405l3.093 5.358.007.013 3.087 5.346-6.187 10.717H20.36L14.174 12.5l1.404-2.434h.002zM9.394 1.784h2.742L5.946 12.5l4.818 8.342h2.742L8.691 12.5l6.187-10.717h2.742L11.433 12.5l6.187 10.715H9.394L3.207 12.5 9.394 1.784zm34.736 11.45v-1.746h6.82c.056.334.075.669.075 1.021 0 3.715-2.81 6.725-6.726 6.725-3.897 0-6.726-3.01-6.726-6.725 0-3.733 2.83-6.742 6.726-6.742a6.635 6.635 0 0 1 5.34 2.693L48.12 9.63a4.65 4.65 0 0 0-3.822-2.006c-2.717 0-4.721 2.062-4.721 4.885 0 2.805 2.004 4.867 4.721 4.867 2.642 0 4.478-1.653 4.665-4.142H44.13zm8.337 5.758V5.99h7.27v1.802h-5.359v3.547h5.19v1.746h-5.19v4.05h5.47v1.857h-7.38zm13.969-7.597H64.6c-1.105 0-1.911-.78-1.911-1.82s.806-1.82 1.91-1.82h3.86V5.99h-4.084c-2.023 0-3.635 1.597-3.635 3.585 0 1.987 1.612 3.585 3.635 3.585h1.724c1.124 0 2.023.873 2.023 1.987 0 1.096-.9 1.988-2.023 1.988h-4.74v1.857h4.927a3.84 3.84 0 0 0 3.86-3.845c0-2.006-1.65-3.752-3.71-3.752zm8.117 0h1.836c2.061 0 3.71 1.746 3.71 3.752a3.84 3.84 0 0 1-3.86 3.845h-4.927v-1.857h4.74c1.124 0 2.023-.892 2.023-1.988 0-1.114-.899-1.987-2.023-1.987H74.33c-2.024 0-3.635-1.598-3.635-3.585 0-1.988 1.611-3.585 3.635-3.585h4.084v1.764h-3.86c-1.105 0-1.91.78-1.91 1.82s.805 1.821 1.91 1.821zm6.75-5.405v13.002h7.27v-1.857h-5.359V5.99h-1.91zm8.38 13.002V5.99h7.27v1.802h-5.359v3.547h5.19v1.746h-5.19v4.05h5.47v1.857h-7.38zm18.109-.539c0-1.56-.562-3.194-2.192-4.123 1.068-.595 2.192-1.858 2.192-3.715 0-2.508-1.967-4.625-5.002-4.625h-4.178v13.002h1.911v-3.808h1.93c2.436 0 3.391 1.84 3.391 3.27v.538h1.948v-.539zm-4.927-10.699c1.817 0 2.942 1.282 2.942 2.86 0 1.45-1.143 2.861-2.942 2.861h-2.342v-5.72h2.342z" clip-rule="evenodd"/></svg>