<svg xmlns="http://www.w3.org/2000/svg" width="111" height="25" fill="none"><path fill="#000" fill-rule="evenodd" d="m1.806 8.589.01-1.72.001-.001c1.82-1.038 3.231-1.848 4.6-2.633a1544.4 1544.4 0 0 1 5.56-3.18l.405.237.757.443L3.076 7.633l1.166.682-.074 11.675-2.426-1.417.007-1.359h-.003L1.8 9.296l.004-.705.002-.002zm6.767 3.954.01-1.72v-.002c1.82-1.038 3.23-1.847 4.6-2.633 1.688-.969 3.313-1.9 5.56-3.179l.405.237.757.443-10.064 5.899 1.167.682-.074 11.674-2.426-1.417.007-1.358h-.003l.055-7.919.003-.706.003-.001zM5.19 10.566l.01-1.72c1.82-1.039 3.23-1.848 4.6-2.634 1.688-.969 3.313-1.9 5.56-3.179l.405.237.757.443L6.46 9.61l1.167.682-.075 11.674-2.425-1.418.007-1.358H5.13l.054-7.918.003-.705.003-.002zm81.53 7.407V7.623h2.268v10.35H86.72zm-.2-13.315c0-.338.12-.617.379-.856.258-.219.577-.338.955-.338.358 0 .677.12.935.358.24.239.378.518.378.836 0 .358-.139.657-.378.896-.258.239-.577.338-.935.338-.398 0-.737-.1-.975-.338a1.215 1.215 0 0 1-.359-.896zm-45.206 5.931L40.2 8.917c.477-.477 1.114-.836 1.89-1.114a7.19 7.19 0 0 1 2.449-.418c1.353 0 2.388.378 3.124 1.114.737.757 1.115 1.792 1.115 3.145v6.33h-2.269v-1.135c-.756.836-1.831 1.254-3.204 1.254-1.155 0-2.07-.279-2.747-.876s-1.015-1.393-1.015-2.388c0-1.095.438-1.911 1.314-2.468.875-.538 2.05-.817 3.523-.817.855 0 1.572.1 2.13.28 0-.777-.16-1.354-.498-1.752-.359-.378-.936-.578-1.732-.578-1.035 0-2.01.379-2.966 1.095zm2.488 5.533c1.175 0 2.07-.457 2.707-1.413v-.995a6.187 6.187 0 0 0-1.89-.279c-1.832 0-2.727.458-2.727 1.374 0 .418.159.736.517.975.338.239.796.338 1.393.338zm-14.468 1.851V7.623h2.269v.936c.776-.756 1.831-1.154 3.184-1.154 2.767 0 4.16 1.572 4.16 4.717v5.851h-2.269v-5.672c0-.975-.219-1.692-.617-2.13-.418-.438-1.055-.657-1.93-.657-.558 0-1.075.16-1.513.478a2.796 2.796 0 0 0-1.015 1.274v6.707h-2.269zm20.701-10.35v10.35h2.27v-6.707a2.796 2.796 0 0 1 1.014-1.274 2.533 2.533 0 0 1 1.513-.478c.876 0 1.513.22 1.93.657.399.438.618 1.155.618 2.13v5.672h2.269v-5.851c0-3.145-1.394-4.717-4.16-4.717-1.353 0-2.408.398-3.184 1.154v-.935h-2.27zm10.389 5.155c0-1.552.497-2.846 1.532-3.86 1.035-1.016 2.369-1.533 4-1.533 1.633 0 2.966.517 4.001 1.532 1.035 1.015 1.553 2.31 1.553 3.861 0 1.553-.518 2.847-1.553 3.862-1.035 1.015-2.368 1.512-4 1.512-1.612 0-2.946-.497-3.98-1.512-1.036-1.015-1.553-2.309-1.553-3.862zm2.348 0c0 .956.279 1.732.876 2.35.597.616 1.353.915 2.309.915.955 0 1.711-.299 2.309-.896.597-.597.895-1.373.895-2.369 0-.975-.318-1.77-.915-2.368-.617-.597-1.374-.916-2.29-.916-.935 0-1.691.299-2.288.896-.597.597-.896 1.393-.896 2.388zm20.347 5.195 3.344-10.35h-2.309l-2.01 6.569-2.468-6.568h-1.712l-2.428 6.548-2.15-6.548h-2.348l3.463 10.35h1.772l2.527-6.728 2.508 6.727h1.811zm12.741-3.662c.438.2.657.438.657.717 0 .358-.18.617-.498.776-.318.159-.716.239-1.194.239-.677 0-1.294-.14-1.89-.458-.598-.299-1.056-.677-1.334-1.155l-1.791 1.235c.378.736.995 1.333 1.85 1.79.836.478 1.832.697 2.946.697 1.214 0 2.23-.258 3.045-.796.796-.517 1.214-1.313 1.214-2.348 0-.558-.159-1.055-.477-1.493a3.249 3.249 0 0 0-1.155-.995 21.727 21.727 0 0 0-1.512-.617 15.377 15.377 0 0 0-1.493-.458c-.478-.12-.856-.259-1.174-.438-.319-.16-.458-.358-.458-.577 0-.617.498-.936 1.532-.936 1.314 0 2.31.399 3.006 1.195l1.552-1.473c-.358-.498-.935-.936-1.692-1.294a5.887 5.887 0 0 0-2.487-.537c-1.334 0-2.369.278-3.125.836-.757.557-1.135 1.293-1.135 2.249 0 .657.2 1.214.637 1.672.438.477.956.816 1.573 1.035.617.238 1.234.438 1.85.597a9.968 9.968 0 0 1 1.553.537zm11.585.358 1.394 1.374c-1.055 1.413-2.448 2.11-4.2 2.11-1.672 0-3.025-.478-4.04-1.454-1.015-.975-1.513-2.288-1.513-3.92 0-1.573.458-2.867 1.393-3.882.936-.995 2.249-1.512 3.921-1.512 1.393 0 2.568.438 3.483 1.313.916.876 1.374 2.01 1.374 3.424 0 .358-.04.836-.12 1.453h-7.682c.079.796.418 1.413 1.015 1.83.577.439 1.313.638 2.209.638 1.154 0 2.09-.458 2.766-1.374zm-3.144-5.234c-.757 0-1.393.199-1.871.577-.498.398-.816.915-.955 1.592h5.433c-.099-.696-.378-1.234-.816-1.612-.458-.358-1.055-.557-1.791-.557zm-89.797 1.444-.018 1.636.003.001-.008.706-.007.55-2.417-1.515 2.447-1.378zm6.83-3.845-.018 1.635.002.002-.008.705-.11 7.948h-.002l-.007.658-2.409-1.51.104-8.062 2.447-1.376zm-3.415 1.922-.018 1.636.003.002-.008.705-.064 4.578-2.413-1.513.052-4.03 2.448-1.378z" clip-rule="evenodd"/></svg>