<svg xmlns="http://www.w3.org/2000/svg" width="111" height="25" fill="none"><path fill="#000" d="M14.414 3.656v-.592h2.823l11.316 13.667h.026l-.184-12.944-2.018-.131v-.592h4.88v.592l-2.031.131.145 18.293h-.805L17.25 8.374h-.027l.185 12.72 2.018.132v.591h-4.88v-.591l2.031-.132-.145-17.307-2.018-.131zM32.207 15.22c0-.683.066-1.349.198-1.997a7.644 7.644 0 0 1 .646-1.892 6.467 6.467 0 0 1 1.095-1.59 4.73 4.73 0 0 1 1.596-1.091 5.25 5.25 0 0 1 2.123-.42c.73 0 1.385.105 1.965.315.58.201 1.064.486 1.451.854s.708.82.963 1.354c.255.525.435 1.1.54 1.721.115.613.172 1.288.172 2.024l-.356.328h-7.017v.802c0 3.82 1.09 5.73 3.271 5.73 1.548 0 2.783-.771 3.707-2.313l.514.315c-1.134 1.901-2.748 2.852-4.84 2.852-2.023 0-3.535-.622-4.538-1.866-.993-1.244-1.49-2.953-1.49-5.125zm3.377-.985 4.26-.17c.026-.448.04-.877.04-1.289 0-1.27-.155-2.247-.462-2.93-.3-.683-.8-1.025-1.504-1.025-.422 0-.787.14-1.095.42-.299.272-.532.666-.699 1.183a10.25 10.25 0 0 0-.382 1.695c-.08.605-.132 1.31-.158 2.116zm8.033-5.047v-.565h2.242V5.719l1.135-.119 1.86-.486.25.381v3.128h2.889v.565l-2.889.118v9.252c0 .534.062.981.185 1.34.131.35.299.592.5.723.212.131.379.215.502.25.132.035.268.052.409.052.272 0 .532-.057.778-.17a2.19 2.19 0 0 0 .686-.526c.211-.228.382-.434.514-.618.132-.193.282-.425.449-.696l.567.341c-.466.771-.87 1.332-1.214 1.682-.835.85-1.798 1.275-2.888 1.275a6.02 6.02 0 0 1-1.108-.092 3.22 3.22 0 0 1-.99-.355 2.572 2.572 0 0 1-.856-.736c-.23-.315-.418-.744-.568-1.287-.14-.552-.21-1.196-.21-1.932V9.306l-2.243-.118zm9.813 0v-.565h1.939c.008-.771.079-1.468.21-2.09.133-.622.295-1.13.489-1.524.193-.403.43-.75.712-1.038.29-.298.563-.517.818-.657.255-.15.54-.263.857-.342.317-.088.572-.14.765-.158a7.05 7.05 0 0 1 .633-.026c.94 0 1.67.21 2.19.63.518.413.778.938.778 1.578 0 .43-.141.797-.422 1.104-.273.306-.642.46-1.108.46-.458 0-.822-.154-1.095-.46a1.566 1.566 0 0 1-.396-1.052c0-.245.049-.49.145-.736.106-.254.246-.438.422-.551v-.053c-.026-.088-.105-.162-.237-.223a.865.865 0 0 0-.435-.106.918.918 0 0 0-.607.198c-.15.131-.26.32-.33.565a4.32 4.32 0 0 0-.118.67 8.846 8.846 0 0 0-.027.749v3.062h3.179v.565l-3.179.131v11.827l1.886.132v.539h-6.476v-.54l1.346-.13V9.318l-1.94-.131z"/><path fill="#000" d="M61.924 4.102v-.539l2.756-.289 1.86-.486.237.381v17.977l1.359.132v.539h-5.948v-.54l1.358-.13V4.101h-1.622zm6.926 5.572v-.538l2.756-.29 1.86-.486.25.381v9.489c0 .516.053.959.159 1.327.114.368.237.644.37.828.14.175.311.315.513.42.212.096.374.154.489.171a4.9 4.9 0 0 0 .382.013c.615 0 1.178-.385 1.688-1.156.519-.78.778-1.735.778-2.865V9.674h-1.622v-.538l2.757-.29 1.86-.486.237.381v12.406l1.358.131v.54h-4.141l-.396-2.025h-.053c-.228.333-.444.618-.646.855a8.932 8.932 0 0 1-.765.748 3.279 3.279 0 0 1-1.068.605 3.81 3.81 0 0 1-1.28.21 5.32 5.32 0 0 1-.923-.079 4.194 4.194 0 0 1-1.016-.341 3.267 3.267 0 0 1-.962-.723c-.264-.307-.493-.732-.686-1.275-.185-.552-.277-1.196-.277-1.931V9.673H68.85zm14.877 12.143v-.539l1.385-.131 3.35-5.112-4.22-6.729-1.293-.144v-.539h6.292v.539l-1.425.144 2.704 4.298 2.743-4.298-1.464-.144v-.539h3.707v.539l-1.385.144-3.179 4.955 4.353 6.886 1.292.131v.539h-6.344v-.539l1.438-.131-2.783-4.429-2.928 4.429 1.464.131v.539h-3.707z"/></svg>