<svg xmlns="http://www.w3.org/2000/svg" width="111" height="25" fill="none"><path fill="#000" fill-rule="evenodd" d="M26.594 6.83a4.485 4.485 0 0 1-1.763 1.624 6.14 6.14 0 0 1 3.032 3.069 5.93 5.93 0 0 1 .215 4.257 6.096 6.096 0 0 1-2.707 3.345 6.354 6.354 0 0 1-4.295.784 6.255 6.255 0 0 1-3.765-2.165 5.972 5.972 0 0 1-1.377-4.044 5.994 5.994 0 0 1 1.69-3.93 6.283 6.283 0 0 1 3.922-1.879 3.297 3.297 0 0 0-1.15-1.995 3.451 3.451 0 0 0-2.202-.793h-.565a.573.573 0 0 1-.4-.161.545.545 0 0 1 0-.78.573.573 0 0 1 .4-.162h.565c.809 0 1.603.212 2.3.613a4.47 4.47 0 0 1 1.66 1.667c.39-.69.964-1.266 1.66-1.667a4.613 4.613 0 0 1 2.3-.613h.565c.15 0 .294.058.4.162a.545.545 0 0 1 .166.39 4.342 4.342 0 0 1-.651 2.278zm-1.667.234a3.297 3.297 0 0 0 1.14-1.96 3.45 3.45 0 0 0-2.161.798 3.298 3.298 0 0 0-1.14 1.96 3.45 3.45 0 0 0 2.161-.798zM19.326 18.06a5.183 5.183 0 0 0 2.828.836 5.162 5.162 0 0 0 3.598-1.456 4.91 4.91 0 0 0 1.493-3.509c0-.982-.299-1.942-.858-2.759a5.066 5.066 0 0 0-2.285-1.829 5.21 5.21 0 0 0-2.941-.282 5.132 5.132 0 0 0-2.607 1.359 4.93 4.93 0 0 0-1.393 2.542 4.852 4.852 0 0 0 .29 2.87 4.994 4.994 0 0 0 1.875 2.228zm5.651-1.375a3.934 3.934 0 0 0 1.129-2.111.541.541 0 0 0-.1-.409.577.577 0 0 0-.785-.128.55.55 0 0 0-.23.355 2.825 2.825 0 0 1-.81 1.515 2.945 2.945 0 0 1-1.554.79.569.569 0 0 0-.353.206.542.542 0 0 0 .063.744.573.573 0 0 0 .476.138 4.1 4.1 0 0 0 2.164-1.1zm17.18-.83c0 2.346-1.665 3.86-3.905 3.86-2.347 0-3.904-1.535-3.904-3.605v-.981h2.005v.661c0 1.45.662 2.198 1.92 2.198 1.238 0 1.878-.747 1.878-1.835 0-1.259-.555-2.048-2.347-3.179-1.6-1.024-3.285-2.41-3.285-4.458 0-2.027 1.344-3.627 3.754-3.627 2.304 0 3.776 1.515 3.776 3.605v.918h-1.92V8.75c0-1.194-.576-2.133-1.92-2.133-1.109 0-1.685.661-1.685 1.621 0 1.259.576 1.92 2.624 3.243 2.07 1.344 3.008 2.539 3.008 4.373zm9.637 3.54h-1.43l-3.52-6.911-1.194-2.496v9.408h-1.92V5.188h1.642l3.37 7.04 1.132 2.496V5.188h1.92v14.208zm7.602 0h2.048L58.223 5.189H56.09l-3.222 14.208h1.963l.747-3.478h3.072l.746 3.478zM57.114 8.367l1.173 5.824H55.94l1.174-5.824zm12.885 2.07c0 2.005-1.024 3.264-3.328 3.264h-2.112v5.696h-2.006V5.188h4.118c2.304 0 3.328 1.237 3.328 3.285v1.963zm-2.027.064V8.409c0-.939-.341-1.472-1.28-1.472H64.56v5.035h2.133c.939 0 1.28-.555 1.28-1.472zm7.652 3.2c2.304 0 3.328-1.26 3.328-3.264V8.473c0-2.048-1.024-3.285-3.328-3.285h-4.117v14.208h2.005V13.7h2.112zm1.301-5.291v2.09c0 .918-.34 1.473-1.28 1.473h-2.133V6.937h2.133c.94 0 1.28.533 1.28 1.472zm10.042 10.987H80.46V5.188h2.005V17.56h4.502v1.835zm1.238 0h6.613V17.56H90.21v-4.736h3.328v-1.75H90.21V7.023h4.608V5.188h-6.613v14.208z" clip-rule="evenodd"/></svg>